<svg xmlns="http://www.w3.org/2000/svg" version="1.1" xmlns:xlink="http://www.w3.org/1999/xlink" xmlns:svgjs="http://svgjs.dev/svgjs" width="1500" height="1500" viewBox="0 0 1500 1500"><rect width="1500" height="1500" fill="#051726"></rect><g transform="matrix(0.6666666666666666,0,0,0.6666666666666666,249.39393939393938,681.6363617722736)"><svg viewBox="0 0 396 54" data-background-color="#051726" preserveAspectRatio="xMidYMid meet" height="204" width="1500" xmlns="http://www.w3.org/2000/svg" xmlns:xlink="http://www.w3.org/1999/xlink"><g id="tight-bounds" transform="matrix(1,0,0,1,0.2400000000000091,0.14438576689133242)"><svg viewBox="0 0 395.52 53.71122846621735" height="53.71122846621735" width="395.52"><g><svg viewBox="0 0 443.4999065338428 60.22685276240209" height="53.71122846621735" width="395.52"><g transform="matrix(1,0,0,1,47.979906533842865,8.323682255874676)"><svg viewBox="0 0 395.52 43.57948825065274" height="43.57948825065274" width="395.52"><g id="textblocktransform"><svg viewBox="0 0 395.52 43.57948825065274" height="43.57948825065274" width="395.52" id="textblock"><g><svg viewBox="0 0 395.52 43.57948825065274" height="43.57948825065274" width="395.52"><g transform="matrix(1,0,0,1,0,0)"><svg width="395.52" viewBox="4 -32.4 382.97 42.2" height="43.57948825065274" data-palette-color="#ffffff"><path d="M10.6 0L4 0 4-29.4 10.6-29.4 10.6 0ZM23.7 0L17.6 0 17.6-22.4 21.7-22.4 22.95-21.8Q24.4-22.05 26.5-22.23 28.6-22.4 31.5-22.4L31.5-22.4 34-22.4Q35.45-22.4 36.8-22.03 38.15-21.65 38.8-20.95L38.8-20.95Q40.1-21.6 42.4-22 44.7-22.4 48.4-22.4L48.4-22.4 50.9-22.4Q53.4-22.4 54.75-21.7 56.1-21 56.67-19.95 57.25-18.9 57.37-17.82 57.5-16.75 57.5-16L57.5-16 57.5 0 51.4 0 51.4-16.1Q51.4-18.1 49-18.1L49-18.1 42-18.1Q41.2-18.1 40.9-17.9 40.6-17.7 40.6-17L40.6-17 40.6 0 34.5 0 34.5-16.1Q34.5-18.1 32.1-18.1L32.1-18.1 25.2-18.1Q24.25-18.1 23.97-17.93 23.7-17.75 23.7-17L23.7-17 23.7 0ZM72.2 0L69.7 0Q65.9 0 64.2-1.78 62.5-3.55 62.5-6.65L62.5-6.65Q62.5-9.9 64.27-11.65 66.05-13.4 69.7-13.4L69.7-13.4 72.25-13.4Q76-13.4 79-13.2 82-13 83.95-12.8L83.95-12.8 83.95-16.1Q83.95-16.55 83.85-17.03 83.75-17.5 83.25-17.8 82.75-18.1 81.55-18.1L81.55-18.1 79.05-18.1Q73.6-18.1 69.95-17.93 66.3-17.75 65-17.6L65-17.6 64.45-21.4Q64.45-22.1 68.25-22.25 72.05-22.4 80.95-22.4L80.95-22.4 83.45-22.4Q85.95-22.4 87.3-21.7 88.65-21 89.22-19.95 89.8-18.9 89.92-17.82 90.05-16.75 90.05-16L90.05-16 90.05 0 85.95 0 84-1Q81.9-0.65 78.95-0.33 76 0 72.2 0L72.2 0ZM71-4.3L71-4.3 82.45-4.3Q83.55-4.3 83.75-4.5 83.95-4.7 83.95-5.75L83.95-5.75 83.95-9.6 71-9.6Q69.65-9.6 69.12-8.95 68.6-8.3 68.6-6.9L68.6-6.9Q68.6-5.5 69.2-4.9 69.8-4.3 71-4.3ZM114.74 8.8L112.24 8.8Q106.74 8.8 103.29 8.7 99.84 8.6 97.99 8.4 96.14 8.2 95.47 7.9 94.79 7.6 94.79 7.25L94.79 7.25 96.29 3.5Q97.09 3.75 99.12 4.13 101.14 4.5 104.29 4.5L104.29 4.5 112.84 4.5Q114.69 4.5 115.47 3.95 116.24 3.4 116.24 2L116.24 2 116.24-1Q114.09-0.6 111.17-0.3 108.24 0 104.44 0L104.44 0 101.94 0Q99.44 0 98.09-0.65 96.74-1.3 96.17-2.3 95.59-3.3 95.47-4.4 95.34-5.5 95.34-6.4L95.34-6.4 95.34-16Q95.34-16.75 95.47-17.82 95.59-18.9 96.17-19.95 96.74-21 98.12-21.7 99.49-22.4 101.94-22.4L101.94-22.4 104.49-22.4Q109.74-22.4 112.67-22.2 115.59-22 116.94-21.75L116.94-21.75 118.24-22.4 122.34-22.4 122.34 2.4Q122.34 3.3 122.07 4.4 121.79 5.5 120.99 6.5 120.19 7.5 118.69 8.15 117.19 8.8 114.74 8.8L114.74 8.8ZM103.84-4.3L103.84-4.3 114.69-4.3Q115.84-4.3 116.04-4.5 116.24-4.7 116.24-5.8L116.24-5.8 116.24-17.75Q114.54-17.85 111.94-17.98 109.34-18.1 106.39-18.1L106.39-18.1 103.84-18.1Q101.44-18.1 101.44-16.1L101.44-16.1 101.44-6.3Q101.39-4.3 103.84-4.3ZM144.49 0L134.44 0Q131.94 0 130.59-0.65 129.24-1.3 128.67-2.3 128.09-3.3 127.97-4.4 127.84-5.5 127.84-6.4L127.84-6.4 127.84-16Q127.84-16.75 127.97-17.82 128.09-18.9 128.67-19.95 129.24-21 130.62-21.7 131.99-22.4 134.44-22.4L134.44-22.4 145.19-22.4Q148.49-22.4 150.37-21.78 152.24-21.15 153.02-19.75 153.79-18.35 153.79-16L153.79-16 153.79-8.6 145.04-8.6Q140.54-8.6 137.72-8.8 134.89-9 133.94-9.05L133.94-9.05 133.94-6.3Q133.89-4.3 136.34-4.3L136.34-4.3 138.89-4.3Q141.59-4.3 144.17-4.38 146.74-4.45 148.89-4.58 151.04-4.7 152.34-4.8L152.34-4.8 154.34-1.55Q154.34 0 144.49 0L144.49 0ZM133.94-16.1L133.94-12.9 147.69-12.9 147.69-16.1Q147.69-17.1 147.47-17.5 147.24-17.9 146.14-18 145.04-18.1 142.39-18.1L142.39-18.1 136.34-18.1Q133.94-18.1 133.94-16.1L133.94-16.1ZM174.64 0L167.34 0 181.99-29.4 191.84-29.4 206.44 0 198.74 0 195.79-6.35 177.89-6.35 174.64 0ZM186.59-24.9L179.69-11.25 193.94-11.25 187.09-24.9 186.59-24.9ZM216.03 0L209.93 0 209.93-27.7 209.43-31.7 216.03-31.7 216.03 0ZM238.18 0L228.13 0Q225.63 0 224.28-0.65 222.93-1.3 222.36-2.3 221.78-3.3 221.66-4.4 221.53-5.5 221.53-6.4L221.53-6.4 221.53-16Q221.53-16.75 221.66-17.82 221.78-18.9 222.36-19.95 222.93-21 224.31-21.7 225.68-22.4 228.13-22.4L228.13-22.4 235.08-22.4Q241.33-22.4 243.96-22.08 246.58-21.75 246.58-21.4L246.58-21.4 245.58-17.6Q244.18-17.7 242.03-17.82 239.88-17.95 237.41-18.03 234.93-18.1 232.58-18.1L232.58-18.1 230.03-18.1Q227.63-18.1 227.63-16.1L227.63-16.1 227.63-6.3Q227.58-4.3 230.03-4.3L230.03-4.3 232.58-4.3Q235.28-4.3 237.86-4.38 240.43-4.45 242.58-4.58 244.73-4.7 246.03-4.8L246.03-4.8 248.03-1.55Q248.03 0 238.18 0L238.18 0ZM257.63 0L251.53 0 251.53-32.4 257.63-32.4 257.63-21.4Q259.73-21.8 262.68-22.1 265.63-22.4 269.43-22.4L269.43-22.4 271.93-22.4Q274.43-22.4 275.78-21.7 277.13-21 277.7-19.95 278.28-18.9 278.4-17.82 278.53-16.75 278.53-16L278.53-16 278.53 0 272.43 0 272.43-16.1Q272.43-18.1 270.03-18.1L270.03-18.1 259.13-18.1Q258.18-18.1 257.9-17.93 257.63-17.75 257.63-17L257.63-17 257.63 0ZM300.43 0L290.38 0Q287.88 0 286.53-0.65 285.18-1.3 284.6-2.3 284.03-3.3 283.9-4.4 283.78-5.5 283.78-6.4L283.78-6.4 283.78-16Q283.78-16.75 283.9-17.82 284.03-18.9 284.6-19.95 285.18-21 286.55-21.7 287.93-22.4 290.38-22.4L290.38-22.4 301.13-22.4Q304.43-22.4 306.3-21.78 308.18-21.15 308.95-19.75 309.73-18.35 309.73-16L309.73-16 309.73-8.6 300.98-8.6Q296.48-8.6 293.65-8.8 290.83-9 289.88-9.05L289.88-9.05 289.88-6.3Q289.83-4.3 292.28-4.3L292.28-4.3 294.83-4.3Q297.53-4.3 300.1-4.38 302.68-4.45 304.83-4.58 306.98-4.7 308.28-4.8L308.28-4.8 310.28-1.55Q310.28 0 300.43 0L300.43 0ZM289.88-16.1L289.88-12.9 303.63-12.9 303.63-16.1Q303.63-17.1 303.4-17.5 303.18-17.9 302.08-18 300.98-18.1 298.33-18.1L298.33-18.1 292.28-18.1Q289.88-18.1 289.88-16.1L289.88-16.1ZM321.37 0L315.27 0 315.27-22.4 319.37-22.4 320.62-21.8Q322.07-22.05 324.17-22.23 326.27-22.4 329.17-22.4L329.17-22.4 331.67-22.4Q333.12-22.4 334.47-22.03 335.82-21.65 336.47-20.95L336.47-20.95Q337.77-21.6 340.07-22 342.37-22.4 346.07-22.4L346.07-22.4 348.57-22.4Q351.07-22.4 352.42-21.7 353.77-21 354.35-19.95 354.92-18.9 355.05-17.82 355.17-16.75 355.17-16L355.17-16 355.17 0 349.07 0 349.07-16.1Q349.07-18.1 346.67-18.1L346.67-18.1 339.67-18.1Q338.87-18.1 338.57-17.9 338.27-17.7 338.27-17L338.27-17 338.27 0 332.17 0 332.17-16.1Q332.17-18.1 329.77-18.1L329.77-18.1 322.87-18.1Q321.92-18.1 321.65-17.93 321.37-17.75 321.37-17L321.37-17 321.37 0ZM364.37 9.8L363.02 9.8Q360.62 9.8 358.62 9.25 356.62 8.7 355.92 8.25L355.92 8.25 357.42 3.75Q358.27 4.1 359.85 4.58 361.42 5.05 363.42 5.05L363.42 5.05 363.97 5.05Q366.27 5.05 368.05 3.68 369.82 2.3 370.77 0L370.77 0 368.27 0 358.47-22.4 365.47-22.4 371.22-8.6 372.52-5 373.02-5 374.32-8.6 380.17-22.4 386.97-22.4 386.17-19.35Q385.22-17.4 384-14.88 382.77-12.35 381.47-9.65 380.17-6.95 378.94-4.45 377.72-1.95 376.77 0L376.77 0Q375.32 3 373.6 5.2 371.87 7.4 369.65 8.6 367.42 9.8 364.37 9.8L364.37 9.8Z" opacity="1" transform="matrix(1,0,0,1,0,0)" fill="#ffffff" class="wordmark-text-0" data-fill-palette-color="primary" id="text-0"></path></svg></g></svg></g></svg></g></svg></g><g><svg viewBox="0 0 37.691835265581766 60.22685276240209" height="60.22685276240209" width="37.691835265581766"><g><svg xmlns="http://www.w3.org/2000/svg" xmlns:xlink="http://www.w3.org/1999/xlink" version="1.1" x="0" y="0" viewBox="28.439000000000007 11.286 45.93599999999999 73.4" enable-background="new 0 0 100 100" xml:space="preserve" height="60.22685276240209" width="37.691835265581766" class="icon-icon-0" data-fill-palette-color="accent" id="icon-0"><path fill="#81ffd9" d="M54.688 42.095v-8.205c1.089-0.389 1.875-1.419 1.875-2.641 0-1.551-1.262-2.812-2.812-2.812h-7.5c-1.551 0-2.812 1.262-2.812 2.812 0 1.221 0.786 2.252 1.875 2.641v8.203c-9.822 2.177-16.875 10.885-16.875 21.031 0 11.889 9.673 21.562 21.562 21.562s21.562-9.673 21.562-21.562C71.562 52.979 64.509 44.271 54.688 42.095zM46.25 30.312h7.5c0.517 0 0.938 0.421 0.938 0.938s-0.421 0.938-0.938 0.938h-7.5c-0.517 0-0.938-0.421-0.938-0.938S45.733 30.312 46.25 30.312zM50 82.812c-10.856 0-19.688-8.831-19.688-19.688 0-9.507 6.773-17.649 16.106-19.361 0.511-0.094 0.848-0.583 0.754-1.092-0.004-0.016-0.015-0.029-0.019-0.045 0.011-0.055 0.033-0.104 0.033-0.163v-8.401h5.625v8.401c0 0.055 0.022 0.104 0.031 0.158-0.004 0.018-0.017 0.033-0.021 0.051-0.093 0.509 0.246 0.998 0.755 1.092 9.334 1.71 16.109 9.853 16.109 19.361C69.688 73.981 60.856 82.812 50 82.812z" data-fill-palette-color="accent"></path><path fill="#81ffd9" d="M55.625 67.812c-0.518 0-0.938 0.419-0.938 0.938 0 2.585-2.102 4.688-4.688 4.688s-4.688-2.102-4.688-4.688c0-0.518-0.419-0.938-0.938-0.938s-0.938 0.419-0.938 0.938c0 3.618 2.944 6.562 6.562 6.562s6.562-2.944 6.562-6.562C56.562 68.232 56.143 67.812 55.625 67.812z" data-fill-palette-color="accent"></path><path fill="#81ffd9" d="M42.5 62.188h-3.75c-0.518 0-0.938 0.419-0.938 0.938s0.419 0.938 0.938 0.938h3.75c0.518 0 0.938-0.419 0.938-0.938S43.018 62.188 42.5 62.188z" data-fill-palette-color="accent"></path><path fill="#81ffd9" d="M61.25 62.188H57.5c-0.518 0-0.938 0.419-0.938 0.938s0.419 0.938 0.938 0.938h3.75c0.518 0 0.938-0.419 0.938-0.938S61.768 62.188 61.25 62.188z" data-fill-palette-color="accent"></path><path fill="#81ffd9" d="M55.835 46.04c-0.481-0.16-1.021 0.095-1.19 0.586-0.167 0.489 0.095 1.021 0.586 1.19 3.917 1.337 7.141 4.093 9.078 7.76 0.168 0.318 0.495 0.5 0.83 0.5 0.148 0 0.298-0.035 0.438-0.108 0.458-0.242 0.634-0.809 0.392-1.267C63.806 50.608 60.208 47.532 55.835 46.04z" data-fill-palette-color="accent"></path><polygon fill="#81ffd9" points="57.68,22.896 52.91,22.878 57.694,18.81 57.705,16.083 48.162,16.047 48.154,18.775 52.812,18.792   48.136,22.769 48.129,25.588 57.67,25.625 " data-fill-palette-color="accent"></polygon><polygon fill="#81ffd9" points="67.201,18.792 63.636,18.777 67.208,15.737 67.219,13.701 60.087,13.672 60.082,15.712   63.564,15.723 60.071,18.696 60.062,20.802 67.193,20.83 " data-fill-palette-color="accent"></polygon><polygon fill="#81ffd9" points="69.62,12.646 71.939,12.654 69.609,14.635 69.605,16.041 74.36,16.058 74.364,14.699 71.987,14.69   74.37,12.661 74.375,11.306 69.624,11.286 " data-fill-palette-color="accent"></polygon></svg></g></svg></g></svg></g><defs></defs></svg><rect width="395.52" height="53.71122846621735" fill="none" stroke="none" visibility="hidden"></rect></g></svg></g></svg>